<?xml version="1.0" encoding="iso-8859-1"?>
<!-- Generator: Adobe Illustrator 19.0.0, SVG Export Plug-In . SVG Version: 6.00 Build 0)  -->
<svg version="1.1" id="Layer_1" xmlns="http://www.w3.org/2000/svg" xmlns:xlink="http://www.w3.org/1999/xlink" x="0px" y="0px"
	 viewBox="0 0 512 512" style="enable-background:new 0 0 512 512;" xml:space="preserve">
<circle style="fill:#BEEBFF;" cx="256" cy="256" r="256"/>
<g>
	<path style="fill:#D9F3FF;" d="M167.724,123.586h-52.966c-4.875,0-8.828-3.953-8.828-8.828l0,0c0-4.875,3.953-8.828,8.828-8.828
		h52.966c4.875,0,8.828,3.953,8.828,8.828l0,0C176.552,119.634,172.599,123.586,167.724,123.586z"/>
	<path style="fill:#D9F3FF;" d="M203.034,105.931h-52.966c-4.875,0-8.828-3.953-8.828-8.828l0,0c0-4.875,3.953-8.828,8.828-8.828
		h52.966c4.875,0,8.828,3.953,8.828,8.828l0,0C211.862,101.978,207.91,105.931,203.034,105.931z"/>
	<path style="fill:#D9F3FF;" d="M459.034,256h-26.483c-4.875,0-8.828-3.953-8.828-8.828l0,0c0-4.875,3.953-8.828,8.828-8.828h26.483
		c4.875,0,8.828,3.953,8.828,8.828l0,0C467.862,252.047,463.91,256,459.034,256z"/>
	<path style="fill:#D9F3FF;" d="M476.69,238.345h-26.483c-4.875,0-8.828-3.953-8.828-8.828l0,0c0-4.875,3.953-8.828,8.828-8.828
		h26.483c4.875,0,8.828,3.953,8.828,8.828l0,0C485.517,234.392,481.565,238.345,476.69,238.345z"/>
	<path style="fill:#D9F3FF;" d="M423.724,203.034h-17.655c-4.875,0-8.828-3.953-8.828-8.828l0,0c0-4.875,3.953-8.828,8.828-8.828
		h17.655c4.875,0,8.828,3.953,8.828,8.828l0,0C432.552,199.082,428.599,203.034,423.724,203.034z"/>
</g>
<path style="fill:#B4EB82;" d="M7.555,317.793C35.206,429.318,135.927,512,256,512s220.794-82.682,248.445-194.207H7.555z"/>
<g>
	<path style="fill:#9BD26E;" d="M9.945,326.621h492.109c1.665-5.81,3.171-11.684,4.428-17.655H5.518
		C6.774,314.936,8.28,320.811,9.945,326.621z"/>
	<path style="fill:#9BD26E;" d="M300.138,450.207H220.69c-4.875,0-8.828-3.953-8.828-8.828l0,0c0-4.875,3.953-8.828,8.828-8.828
		h79.448c4.875,0,8.828,3.953,8.828,8.828l0,0C308.966,446.254,305.013,450.207,300.138,450.207z"/>
	<path style="fill:#9BD26E;" d="M397.241,379.586H229.517c-4.875,0-8.828-3.953-8.828-8.828l0,0c0-4.875,3.953-8.828,8.828-8.828
		h167.724c4.875,0,8.828,3.953,8.828,8.828l0,0C406.069,375.634,402.116,379.586,397.241,379.586z"/>
	<path style="fill:#9BD26E;" d="M194.207,379.586h-35.31c-4.875,0-8.828-3.953-8.828-8.828l0,0c0-4.875,3.953-8.828,8.828-8.828
		h35.31c4.875,0,8.828,3.953,8.828,8.828l0,0C203.034,375.634,199.082,379.586,194.207,379.586z"/>
</g>
<g>
	<path style="fill:#D7F082;" d="M282.483,414.897h-17.655c-4.875,0-8.828-3.953-8.828-8.828l0,0c0-4.875,3.953-8.828,8.828-8.828
		h17.655c4.875,0,8.828,3.953,8.828,8.828l0,0C291.31,410.944,287.358,414.897,282.483,414.897z"/>
	<path style="fill:#D7F082;" d="M123.586,379.586h-17.655c-4.875,0-8.828-3.953-8.828-8.828l0,0c0-4.875,3.953-8.828,8.828-8.828
		h17.655c4.875,0,8.828,3.953,8.828,8.828l0,0C132.414,375.634,128.461,379.586,123.586,379.586z"/>
	<path style="fill:#D7F082;" d="M406.069,414.897h-35.31c-4.875,0-8.828-3.953-8.828-8.828l0,0c0-4.875,3.953-8.828,8.828-8.828
		h35.31c4.875,0,8.828,3.953,8.828,8.828l0,0C414.897,410.944,410.944,414.897,406.069,414.897z"/>
	<path style="fill:#D7F082;" d="M300.138,485.517h-52.966c-4.875,0-8.828-3.953-8.828-8.828l0,0c0-4.875,3.953-8.828,8.828-8.828
		h52.966c4.875,0,8.828,3.953,8.828,8.828l0,0C308.966,481.565,305.013,485.517,300.138,485.517z"/>
	<path style="fill:#D7F082;" d="M211.862,485.517h-8.828c-4.875,0-8.828-3.953-8.828-8.828l0,0c0-4.875,3.953-8.828,8.828-8.828
		h8.828c4.875,0,8.828,3.953,8.828,8.828l0,0C220.69,481.565,216.737,485.517,211.862,485.517z"/>
	<path style="fill:#D7F082;" d="M229.517,414.897h-88.276c-4.875,0-8.828-3.953-8.828-8.828l0,0c0-4.875,3.953-8.828,8.828-8.828
		h88.276c4.875,0,8.828,3.953,8.828,8.828l0,0C238.345,410.944,234.392,414.897,229.517,414.897z"/>
</g>
<path style="fill:#9BD26E;" d="M353.103,450.207h-17.655c-4.875,0-8.828-3.953-8.828-8.828l0,0c0-4.875,3.953-8.828,8.828-8.828
	h17.655c4.875,0,8.828,3.953,8.828,8.828l0,0C361.931,446.254,357.978,450.207,353.103,450.207z"/>
<g>
	<path style="fill:#EBF9FF;" d="M291.31,70.621H256c-4.875,0-8.828-3.953-8.828-8.828l0,0c0-4.875,3.953-8.828,8.828-8.828h35.31
		c4.875,0,8.828,3.953,8.828,8.828l0,0C300.138,66.668,296.185,70.621,291.31,70.621z"/>
	<path style="fill:#EBF9FF;" d="M220.69,70.621h-17.655c-4.875,0-8.828-3.953-8.828-8.828l0,0c0-4.875,3.953-8.828,8.828-8.828
		h17.655c4.875,0,8.828,3.953,8.828,8.828l0,0C229.517,66.668,225.565,70.621,220.69,70.621z"/>
	<path style="fill:#EBF9FF;" d="M335.448,88.276h-52.966c-4.875,0-8.828-3.953-8.828-8.828l0,0c0-4.875,3.953-8.828,8.828-8.828
		h52.966c4.875,0,8.828,3.953,8.828,8.828l0,0C344.276,84.323,340.323,88.276,335.448,88.276z"/>
	<path style="fill:#EBF9FF;" d="M88.276,273.655H61.793c-4.875,0-8.828-3.953-8.828-8.828l0,0c0-4.875,3.953-8.828,8.828-8.828
		h26.483c4.875,0,8.828,3.953,8.828,8.828l0,0C97.103,269.703,93.151,273.655,88.276,273.655z"/>
	<path style="fill:#EBF9FF;" d="M70.621,256H44.138c-4.875,0-8.828-3.953-8.828-8.828l0,0c0-4.875,3.953-8.828,8.828-8.828h26.483
		c4.875,0,8.828,3.953,8.828,8.828l0,0C79.448,252.047,75.496,256,70.621,256z"/>
	<path style="fill:#EBF9FF;" d="M414.897,158.897h-61.793c-4.875,0-8.828-3.953-8.828-8.828l0,0c0-4.875,3.953-8.828,8.828-8.828
		h61.793c4.875,0,8.828,3.953,8.828,8.828l0,0C423.724,154.944,419.772,158.897,414.897,158.897z"/>
	<path style="fill:#EBF9FF;" d="M273.655,132.414h-26.483c-4.875,0-8.828-3.953-8.828-8.828l0,0c0-4.875,3.953-8.828,8.828-8.828
		h26.483c4.875,0,8.828,3.953,8.828,8.828l0,0C282.483,128.461,278.53,132.414,273.655,132.414z"/>
	<path style="fill:#EBF9FF;" d="M432.552,141.241h-35.31c-4.875,0-8.828-3.953-8.828-8.828l0,0c0-4.875,3.953-8.828,8.828-8.828
		h35.31c4.875,0,8.828,3.953,8.828,8.828l0,0C441.379,137.289,437.427,141.241,432.552,141.241z"/>
</g>
<path style="fill:#C35546;" d="M416.863,333.415c-9.78-63.663-53.257-124.033-120.622-156.499s-141.674-28.862-197.565,3.151
	c-2.611,1.495-3.997,4.373-3.54,7.346c9.78,63.663,53.257,124.034,120.621,156.5s141.674,28.862,197.565-3.153
	C415.934,339.265,417.32,336.388,416.863,333.415z"/>
<path style="fill:#AE4B3F;" d="M267.928,320.059c-67.364-32.466-110.842-92.836-120.621-156.5c-0.159-1.035-0.022-2.034,0.239-2.991
	c-17.291,4.351-33.767,10.849-48.87,19.499c-2.611,1.496-3.997,4.373-3.54,7.346c9.78,63.663,53.257,124.034,120.621,156.5
	s141.675,28.862,197.565-3.153c1.702-0.974,2.809-2.561,3.3-4.354C369.922,348.157,317.09,343.752,267.928,320.059z"/>
<g>
	<path style="fill:#FFFFFF;" d="M322.554,366.313c6.894-0.291,13.732-0.865,20.472-1.814l48.609-100.862
		c-3.457-5.863-7.27-11.57-11.336-17.143L322.554,366.313z"/>
	<path style="fill:#FFFFFF;" d="M120.364,257.19c3.457,5.863,7.27,11.57,11.336,17.144l57.746-119.819
		c-6.894,0.291-13.734,0.865-20.472,1.814L120.364,257.19z"/>
</g>
<g>
	<path style="fill:#F4EBDC;" d="M153.155,189.149l-32.791,68.04c3.457,5.863,7.27,11.57,11.336,17.144l29.969-62.183
		C158.337,204.617,155.495,196.938,153.155,189.149z"/>
	<path style="fill:#F4EBDC;" d="M335.076,340.33l-12.522,25.983c6.894-0.291,13.732-0.865,20.472-1.814l10.769-22.345
		C347.574,341.82,341.337,341.21,335.076,340.33z"/>
	<path style="fill:#F4EBDC;" d="M297.964,295.337l-95.427-45.991c-4.392-2.116-6.237-7.393-4.119-11.785l0,0
		c2.116-4.392,7.393-6.237,11.785-4.119l95.427,45.991c4.392,2.116,6.237,7.393,4.119,11.785l0,0
		C307.633,295.609,302.357,297.454,297.964,295.337z"/>
</g>
<g>
	<path style="fill:#FFFFFF;" d="M238.463,276.466l15.332-31.813c2.116-4.392,7.393-6.237,11.785-4.119l0,0
		c4.392,2.116,6.237,7.393,4.119,11.785l-15.332,31.814c-2.116,4.392-7.393,6.237-11.785,4.12l0,0
		C238.19,286.134,236.346,280.857,238.463,276.466z"/>
	<path style="fill:#FFFFFF;" d="M206.655,261.137l15.332-31.813c2.116-4.392,7.393-6.237,11.785-4.12l0,0
		c4.392,2.116,6.237,7.393,4.12,11.785l-15.332,31.814c-2.116,4.392-7.393,6.237-11.785,4.119l0,0
		C206.383,270.805,204.538,265.528,206.655,261.137z"/>
	<path style="fill:#FFFFFF;" d="M270.273,291.797l15.332-31.814c2.116-4.392,7.393-6.237,11.785-4.12l0,0
		c4.392,2.116,6.237,7.393,4.119,11.785l-15.332,31.814c-2.116,4.392-7.393,6.237-11.785,4.12l0,0
		C270.001,301.464,268.157,296.189,270.273,291.797z"/>
</g>
<g>
</g>
<g>
</g>
<g>
</g>
<g>
</g>
<g>
</g>
<g>
</g>
<g>
</g>
<g>
</g>
<g>
</g>
<g>
</g>
<g>
</g>
<g>
</g>
<g>
</g>
<g>
</g>
<g>
</g>
</svg>
