<svg height="512pt" viewBox="0 0 512 512" width="512pt" xmlns="http://www.w3.org/2000/svg"><path d="m446.566406 0h-168.191406l-278.375 278.375 233.625 233.625 278.375-278.375v-168.191406zm35.398438 221.183594-248.339844 248.339844-191.148438-191.148438 248.339844-248.339844h143.308594l47.839844 47.839844zm0 0"/><path d="m155.746094 335.011719 90.617187-90.617188 21.238281 21.238281-90.617187 90.617188zm0 0"/><path d="m366.011719 79.441406c-8.886719 8.886719-13.785157 20.707032-13.785157 33.273438 0 12.570312 4.898438 24.386718 13.785157 33.273437 9.171875 9.175781 21.222656 13.761719 33.273437 13.761719 12.050782 0 24.101563-4.585938 33.273438-13.761719 8.886718-8.886719 13.78125-20.703125 13.78125-33.273437 0-12.566406-4.894532-24.386719-13.78125-33.273438-18.347656-18.347656-48.199219-18.34375-66.546875 0zm45.308593 45.308594c-6.636718 6.636719-17.433593 6.636719-24.070312 0-3.214844-3.214844-4.984375-7.488281-4.984375-12.035156s1.769531-8.820313 4.984375-12.035156c3.316406-3.320313 7.675781-4.976563 12.035156-4.976563s8.71875 1.65625 12.035156 4.976563c3.214844 3.214843 4.984376 7.488281 4.984376 12.035156s-1.769532 8.820312-4.984376 12.035156zm0 0"/><path d="m113.269531 292.535156 147.253907-147.253906 21.238281 21.238281-147.253907 147.253907zm0 0"/><path d="m198.222656 377.488281 118.9375-118.933593 21.238282 21.238281-118.9375 118.933593zm0 0"/></svg>